:version 1.10
:name ASF
:units
  mass 1
  length 1
  angle deg
:documentation
  ASF file generated by Kaydara
:root
  axis xyz
  order  tx ty tz rx ry rz
  position 0 0 0
  orientation 0 0 0
:bonedata
  begin
    id 1
    name RightUpLegDummy
    direction -0.65628 -0.754516 0.00165102
    length 4.76918
    axis 0 0 0 xyz
  end
  begin
    id 2
    name RightUpLeg
    direction -0.145584 -0.923362 0.355256
    length 17.9961
    axis -24.7611 -13.1006 1.78531 xyz
    dof rx ry rz
  end
  begin
    id 3
    name RightLeg
    direction 0.263379 0.172355 -0.949171
    length 13.3386
    axis 89.6202 -21.1929 12.3855 xyz
    dof rx ry rz
  end
  begin
    id 4
    name RightFoot
    direction 0.224283 -0.968777 -0.105675
    length 5.86697
    axis 56.995 -39.6905 17.3365 xyz
    dof rx ry rz
  end
  begin
    id 5
    name RightToes
    direction -0.0806345 -0.9037 0.420506
    length 4.75197
    axis 146.825 -39.7828 17.6019 xyz
    dof rx ry rz
  end
  begin
    id 6
    name SpineDummy
    direction -3.39852e-014 1 9.33296e-014
    length 8.13779
    axis 0 0 0 xyz
  end
  begin
    id 7
    name Spine
    direction -0.156609 0.733703 0.661176
    length 7.14978
    axis 41.2365 5.68757 17.0844 xyz
    dof rx ry rz
  end
  begin
    id 8
    name Spine1
    direction 0 0 0
    length 0
    axis 42.8809 47.8308 -3.36039 xyz
    dof rx ry rz
  end
  begin
    id 9
    name HEadDummy
    direction 0.546431 0.701947 0.456819
    length 3.55512
    axis 42.8809 47.8308 -3.36039 xyz
  end
  begin
    id 10
    name HEad
    direction 0.23444 0.828559 0.508457
    length 7.35827
    axis 51.1864 49.2662 27.4903 xyz
    dof rx ry rz
  end
  begin
    id 11
    name LeftShoulder1Dummy
    direction 0.431183 0.475873 -0.766568
    length 2.49352
    axis 42.8809 47.8308 -3.36039 xyz
  end
  begin
    id 12
    name LeftShoulder1
    direction 0.268187 -0.383402 -0.883786
    length 4.48604
    axis -119.517 0.106469 35.1736 xyz
    dof rx ry rz
  end
  begin
    id 13
    name LeftArm
    direction 0.380567 -0.703221 -0.600541
    length 10.1142
    axis -5.41825 36.2925 7.8293 xyz
    dof rx ry rz
  end
  begin
    id 14
    name LeftForeArm
    direction 0.541071 -0.732356 -0.413396
    length 9.39839
    axis 4.65387 33.7604 7.81644 xyz
    dof rx ry rz
  end
  begin
    id 15
    name LeftHand
    direction 0.847511 -0.389379 -0.360707
    length 3.66142
    axis 7.65593 21.1436 -24.6758 xyz
    dof rx ry rz
  end
  begin
    id 16
    name RightShoulderDummy
    direction -0.692546 0.541855 0.476208
    length 2.49352
    axis 42.8809 47.8308 -3.36039 xyz
  end
  begin
    id 17
    name RightShoulder
    direction -0.870808 -0.316653 0.376065
    length 4.48602
    axis 141.571 51.133 -100.254 xyz
    dof rx ry rz
  end
  begin
    id 18
    name RightArm
    direction 0.366897 -0.87275 0.322015
    length 10.1142
    axis 92.3258 71.2036 138.917 xyz
    dof rx ry rz
  end
  begin
    id 19
    name RightForeArm
    direction 0.702487 -0.694568 0.155197
    length 9.39835
    axis 153.863 41.5092 -176.604 xyz
    dof rx ry rz
  end
  begin
    id 20
    name RightHand
    direction 0.79502 -0.601276 0.0800636
    length 3.66142
    axis 154.247 4.59222 142.9 xyz
    dof rx ry rz
  end
  begin
    id 21
    name LeftUpLegDummy
    direction 0.65628 -0.754516 0.00165102
    length 4.76919
    axis 0 0 0 xyz
  end
  begin
    id 22
    name LeftUpLeg
    direction -0.1277 -0.689368 0.713067
    length 17.9961
    axis -48.3385 -17.8675 0.791927 xyz
    dof rx ry rz
  end
  begin
    id 23
    name LeftLeg
    direction 0.109849 -0.991246 -0.0732378
    length 13.3386
    axis -2.05791 -7.30784 1.72042 xyz
    dof rx ry rz
  end
  begin
    id 24
    name LeftFoot
    direction 0.0448355 -0.272614 0.961078
    length 5.86697
    axis -18.7733 -7.89606 10.2113 xyz
    dof rx ry rz
  end
  begin
    id 25
    name LeftToes
    direction -0.18506 0.293668 0.937823
    length 4.75197
    axis 71.2267 -7.89606 10.2113 xyz
    dof rx ry rz
  end
:hierarchy
  begin
    root RightUpLegDummy SpineDummy LeftUpLegDummy
    RightUpLegDummy RightUpLeg
    RightUpLeg RightLeg
    RightLeg RightFoot
    RightFoot RightToes
    SpineDummy Spine
    Spine Spine1
    Spine1 HEadDummy LeftShoulder1Dummy RightShoulderDummy
    HEadDummy HEad
    LeftShoulder1Dummy LeftShoulder1
    LeftShoulder1 LeftArm
    LeftArm LeftForeArm
    LeftForeArm LeftHand
    RightShoulderDummy RightShoulder
    RightShoulder RightArm
    RightArm RightForeArm
    RightForeArm RightHand
    LeftUpLegDummy LeftUpLeg
    LeftUpLeg LeftLeg
    LeftLeg LeftFoot
    LeftFoot LeftToes
  end

:SAMPLES-PER-SECOND 30
:FULLY-SPECIFIED
:DEGREES
340
root  0.955433 34.8561 -4.75876 103.084 66.9247 -16.5028
RightUpLeg  -36.6152 -8.6615 -50.9872
RightLeg  -68.7527 -19.9734 9.85007
RightFoot  11.4877 3.89763 -12.5309
RightToes  -1.27222e-014 -6.36111e-015 6.36111e-015
Spine  -3.40836 -10.9136 -0.609511
Spine1  -25.8324 -15.8409 26.7449
HEad  3.67296 -14.3826 -4.7166
LeftShoulder1  6.36111e-015 -1.33558e-015 6.49777e-015
LeftArm  -68.4779 -33.3145 23.4636
LeftForeArm  -21.8841 23.1019 1.33263
LeftHand  6.18885 14.0503 3.23348
RightShoulder  -4.77083e-015 -6.36111e-015 -3.18055e-015
RightArm  -40.1517 2.44549 -33.9533
RightForeArm  -31.5879 -39.6675 -0.580517
RightHand  23.1361 -19.5128 -56.1368
LeftUpLeg  30.3014 18.4952 64.0917
LeftLeg  -28.9737 -8.32825 -2.33556
LeftFoot  8.64948 8.49419 -22.1963
LeftToes  9.54166e-015 -1.91609e-011 -2.3878e-011
341
root  0.838813 34.8134 -6.9662 44.9564 71.4735 -77.7304
RightUpLeg  -37.2068 -9.75027 -52.4587
RightLeg  -62.3023 -23.3179 11.2656
RightFoot  12.0592 4.47487 -13.7121
RightToes  -1.27222e-014 -6.36111e-015 6.36111e-015
Spine  -1.09437 -4.71816 6.85935
Spine1  -22.4134 -16.1268 6.91898
HEad  7.04941 -15.74 -3.43345
LeftShoulder1  6.36111e-015 -1.33558e-015 6.49777e-015
LeftArm  -72.5952 -34.4871 33.7533
LeftForeArm  -18.4121 26.2742 3.11826
LeftHand  9.82103 17.9611 10.4624
RightShoulder  -4.77083e-015 -6.36111e-015 -3.18055e-015
RightArm  -24.4008 27.1253 -34.0017
RightForeArm  -52.7168 -70.7189 9.41879
RightHand  20.7455 -22.3356 -46.3844
LeftUpLeg  28.3773 24.8641 64.7888
LeftLeg  -20.292 -7.88619 -1.17784
LeftFoot  4.94737 7.27181 -21.0083
LeftToes  9.54166e-015 -1.91609e-011 -2.3878e-011
342
root  0.302994 34.893 -8.66004 8.31133 57.0377 -115.659
RightUpLeg  -38.442 -9.30159 -53.1734
RightLeg  -55.5838 -26.9253 11.9018
RightFoot  11.3957 5.25538 -14.9927
RightToes  -1.27222e-014 -6.36111e-015 6.36111e-015
Spine  2.51626 0.805713 11.3598
Spine1  -19.2681 -14.1333 -9.69771
HEad  10.4229 -18.293 -2.16754
LeftShoulder1  6.36111e-015 -1.33558e-015 6.49777e-015
LeftArm  -77.937 -38.3781 50.3197
LeftForeArm  -13.3627 30.3655 2.05269
LeftHand  11.4022 19.6148 12.9777
RightShoulder  -4.77083e-015 -6.36111e-015 -3.18055e-015
RightArm  -19.7363 29.291 -31.4007
RightForeArm  -36.5363 -74.198 -0.8892
RightHand  13.2107 -22.4908 -27.227
LeftUpLeg  23.3561 29.4532 63.6093
LeftLeg  -17.7571 -7.15622 -1.29813
LeftFoot  3.3875 5.89053 -17.833
LeftToes  9.54166e-015 -1.91609e-011 -2.3878e-011
343
root  -0.464657 35.0817 -10.0312 -5.14164 39.6542 -128.007
RightUpLeg  -36.9747 -7.67547 -54.0291
RightLeg  -50.1034 -30.789 12.5551
RightFoot  9.97607 7.25083 -18.4964
RightToes  -1.27222e-014 -6.36111e-015 6.36111e-015
Spine  3.70018 4.04705 12.7859
Spine1  -15.9754 -11.2319 -16.9329
HEad  10.1264 -17.6277 -0.142394
LeftShoulder1  6.36111e-015 -1.33558e-015 6.49777e-015
LeftArm  -83.8958 -38.4342 66.3223
LeftForeArm  -9.82811 30.8385 0.907679
LeftHand  11.1985 20.8735 10.2596
RightShoulder  -4.77083e-015 -6.36111e-015 -3.18055e-015
RightArm  -18.4654 25.8719 -30.8252
RightForeArm  -19.4035 -55.7156 -7.27028
RightHand  4.97764 -17.6289 -6.82769
LeftUpLeg  14.4004 31.009 60.3188
LeftLeg  -20.3929 -3.91736 -2.14406
LeftFoot  4.35052 5.48935 -16.1881
LeftToes  9.54166e-015 -1.91609e-011 -2.3878e-011
344
root  -1.57306 35.3132 -11.1461 -14.9542 23.416 -133.689
RightUpLeg  -31.755 -3.90633 -55.2542
RightLeg  -46.4997 -34.6207 13.4506
RightFoot  9.56329 9.12753 -22.0729
RightToes  -1.27222e-014 -6.36111e-015 6.36111e-015
Spine  3.29634 5.2118 12.7501
Spine1  -13.3602 -9.08596 -16.7849
HEad  7.71851 -14.2386 3.34167
LeftShoulder1  6.36111e-015 -1.33558e-015 6.49777e-015
LeftArm  -85.2432 -33.7591 72.6007
LeftForeArm  -4.43864 21.0717 1.78478
LeftHand  11.5651 22.2409 9.31431
RightShoulder  -4.77083e-015 -6.36111e-015 -3.18055e-015
RightArm  -16.2843 23.8268 -33.2711
RightForeArm  -18.4568 -27.3326 -3.40291
RightHand  0.519845 -8.35321 4.5972
LeftUpLeg  4.88263 31.8167 56.9498
LeftLeg  -25.5106 -0.218743 -3.83756
LeftFoot  4.6714 5.33754 -15.6057
LeftToes  9.54166e-015 -1.91609e-011 -2.3878e-011
345
root  -3.14836 35.5206 -11.812 -23.8541 7.22502 -136.025
RightUpLeg  -25.8833 2.8171 -55.5031
RightLeg  -42.5126 -37.5278 13.0963
RightFoot  9.1174 9.18997 -22.1712
RightToes  -1.27222e-014 -6.36111e-015 6.36111e-015
Spine  3.95676 5.88578 12.1942
Spine1  -14.0083 -8.28483 -14.2067
HEad  7.33385 -11.7938 6.90208
LeftShoulder1  6.36111e-015 -1.33558e-015 6.49777e-015
LeftArm  -83.5135 -30.6313 76.6202
LeftForeArm  1.7639 6.51766 1.48504
LeftHand  14.1905 22.3255 17.0025
RightShoulder  -4.77083e-015 -6.36111e-015 -3.18055e-015
RightArm  -2.1961 32.8655 -35.6802
RightForeArm  -28.3591 -9.36179 -10.393
RightHand  -0.489883 -0.0639261 3.93576
LeftUpLeg  -4.35424 36.9531 52.9058
LeftLeg  -29.2919 -1.62687 -4.19918
LeftFoot  3.57574 4.65365 -14.0461
LeftToes  9.54166e-015 -1.91609e-011 -2.3878e-011
346
root  -5.1869 35.4909 -11.7663 -32.0362 -8.85511 -135.549
RightUpLeg  -21.3388 9.06417 -54.1783
RightLeg  -36.9065 -40.8847 11.7363
RightFoot  6.94375 9.17104 -22.0152
RightToes  -1.27222e-014 -6.36111e-015 6.36111e-015
Spine  5.30266 6.46135 12.0197
Spine1  -17.1272 -8.71053 -11.445
HEad  9.17795 -11.1008 8.7475
LeftShoulder1  6.36111e-015 -1.33558e-015 6.49777e-015
LeftArm  -81.504 -31.5276 84.233
LeftForeArm  7.69517 -1.95687 -0.606548
LeftHand  15.7688 21.959 22.0765
RightShoulder  -4.77083e-015 -6.36111e-015 -3.18055e-015
RightArm  9.45821 35.7413 -41.7978
RightForeArm  -37.9555 5.33627 -23.2451
RightHand  0.42283 0.0619091 -3.31528
LeftUpLeg  -15.5937 43.1201 43.7909
LeftLeg  -27.5587 -4.21402 -2.71222
LeftFoot  2.47865 4.15402 -12.9475
LeftToes  9.54166e-015 -1.91609e-011 -2.3878e-011
347
root  -7.16646 35.2184 -10.8344 -41.8967 -24.9773 -131.184
RightUpLeg  -17.3347 12.5759 -51.8093
RightLeg  -32.2536 -44.791 10.6702
RightFoot  5.27545 9.83336 -23.3319
RightToes  -1.27222e-014 -6.36111e-015 6.36111e-015
Spine  6.95538 6.3417 11.3015
Spine1  -19.8861 -9.36672 -8.59645
HEad  11.5662 -12.0543 9.06591
LeftShoulder1  6.36111e-015 -1.33558e-015 6.49777e-015
LeftArm  -79.1139 -32.5149 89.5641
LeftForeArm  13.5682 -7.07734 -4.23063
LeftHand  13.9873 22.2293 16.5721
RightShoulder  -4.77083e-015 -6.36111e-015 -3.18055e-015
RightArm  16.9799 34.513 -50.7727
RightForeArm  -44.6364 11.276 -32.4178
RightHand  2.08945 -2.44744 -10.8211
LeftUpLeg  -21.9359 43.1703 35.3928
LeftLeg  -22.3551 -1.2277 -3.05266
LeftFoot  2.30642 4.23142 -13.2538
LeftToes  9.54166e-015 -1.91609e-011 -2.3878e-011
348
root  -8.47711 34.7247 -9.19118 -58.6886 -41.7094 -117.15
RightUpLeg  -14.4826 15.6829 -48.0822
RightLeg  -34.1655 -41.3852 10.4578
RightFoot  7.00158 9.26424 -22.2098
RightToes  -1.27222e-014 -6.36111e-015 6.36111e-015
Spine  8.91225 6.16093 8.7867
Spine1  -21.5639 -8.31904 -5.82781
HEad  14.2334 -17.6995 8.28754
LeftShoulder1  6.36111e-015 -1.33558e-015 6.49777e-015
LeftArm  -73.9492 -31.5008 89.1018
LeftForeArm  22.2869 -18.1193 -10.4256
LeftHand  11.9347 21.4655 11.6439
RightShoulder  -4.77083e-015 -6.36111e-015 -3.18055e-015
RightArm  20.8936 29.0806 -60.5939
RightForeArm  -46.0393 12.1628 -34.2953
RightHand  4.21745 -3.18851 -22.2499
LeftUpLeg  -17.7975 46.2106 35.5547
LeftLeg  -18.9009 -2.15793 -2.38362
LeftFoot  2.10848 4.46975 -14.0771
LeftToes  9.54166e-015 -1.91609e-011 -2.3878e-011
349
root  -8.663 33.8236 -7.05489 -88.8533 -52.7392 -86.3365
RightUpLeg  -11.0234 17.6974 -43.1373
RightLeg  -48.0833 -26.9151 8.62994
RightFoot  13.9025 5.83284 -16.482
RightToes  -1.27222e-014 -6.36111e-015 6.36111e-015
Spine  8.25516 6.57173 8.10404
Spine1  -21.9752 -5.96412 -2.6625
HEad  18.0301 -28.3662 4.55699
LeftShoulder1  6.36111e-015 -1.33558e-015 6.49777e-015
LeftArm  -64.9923 -31.6212 89.244
LeftForeArm  36.7366 -32.3982 -21.9766
LeftHand  13.0361 19.6861 18.0547
RightShoulder  -4.77083e-015 -6.36111e-015 -3.18055e-015
RightArm  23.4805 20.1586 -69.5311
RightForeArm  -46.3272 11.1185 -32.9953
RightHand  7.36027 -6.34967 -31.4815
LeftUpLeg  -4.1379 50.5439 44.9255
LeftLeg  -22.4999 -9.97826 -0.603992
LeftFoot  2.12395 4.21978 -13.2881
LeftToes  9.54166e-015 -1.91609e-011 -2.3878e-011
350
root  -7.67658 33.436 -5.17517 -123.029 -50.4861 -50.1905
RightUpLeg  -1.85361 13.2214 -39.2842
RightLeg  -72.515 -14.2096 0.791175
RightFoot  23.3355 -3.32389 -4.74341
RightToes  -1.27222e-014 -6.36111e-015 6.36111e-015
Spine  4.99794 6.12864 8.39293
Spine1  -22.4232 -5.26014 3.11594
HEad  23.4923 -36.4478 -3.04079
LeftShoulder1  6.36111e-015 -1.33558e-015 6.49777e-015
LeftArm  -51.7224 -34.5217 91.8615
LeftForeArm  50.2546 -37.3994 -33.7998
LeftHand  14.4221 20.2756 21.1929
RightShoulder  -4.77083e-015 -6.36111e-015 -3.18055e-015
RightArm  24.4204 10.9374 -76.5078
RightForeArm  -44.0032 13.2919 -34.7613
RightHand  5.99619 -2.3751 -34.2287
LeftUpLeg  10.2419 21.8151 49.5433
LeftLeg  -33.6454 1.86085 -15.2883
LeftFoot  4.29796 3.01839 -8.94578
LeftToes  9.54166e-015 -1.91609e-011 -2.3878e-011
